inDegrees=no
num_controls=7
num_derivatives=13
num_iterations=141
num_multipliers=7
num_parameters=0
num_slacks=7
num_states=26
objective=5.116034
objective_accelerations=0.260875
objective_balance=0.004009
objective_effort=0.294667
objective_height=4.507832
objective_ligament=0.048651
solver_duration=1231.660585
status=Solve_Succeeded
success=true
DataType=double
version=3
OpenSimVersion=4.4-2022-07-23-0e9fedc
endheader
time	/jointset/ground_pelvis/pelvis_tilt/value	/jointset/ground_pelvis/pelvis_tx/value	/jointset/ground_pelvis/pelvis_ty/value	/jointset/hip_r/hip_flexion_r/value	/jointset/hip_r/hip_adduction_r/value	/jointset/hip_r/hip_rotation_r/value	/jointset/back/lumbar_extension/value	/jointset/patellofemoral_r/patellar_flexion_r/value	/jointset/knee_r/knee_flexion_r/value	/jointset/knee_r/knee_adduction_r/value	/jointset/knee_r/knee_rotation_r/value	/jointset/ankle_r/ankle_angle_r/value	/jointset/subtalar_r/subtalar_angle_r/value	/jointset/ground_pelvis/pelvis_tilt/speed	/jointset/ground_pelvis/pelvis_tx/speed	/jointset/ground_pelvis/pelvis_ty/speed	/jointset/hip_r/hip_flexion_r/speed	/jointset/hip_r/hip_adduction_r/speed	/jointset/hip_r/hip_rotation_r/speed	/jointset/back/lumbar_extension/speed	/jointset/patellofemoral_r/patellar_flexion_r/speed	/jointset/knee_r/knee_flexion_r/speed	/jointset/knee_r/knee_adduction_r/speed	/jointset/knee_r/knee_rotation_r/speed	/jointset/ankle_r/ankle_angle_r/speed	/jointset/subtalar_r/subtalar_angle_r/speed	/forceset/tau_hip_flexion_r	/forceset/tau_hip_adduction_r	/forceset/tau_hip_rotation_r	/forceset/tau_knee_flexion_r	/forceset/tau_ankle_angle_r	/forceset/tau_subtalar_angle_r	/forceset/tau_lumbar_extension	lambda_cid13_p0	lambda_cid14_p0	lambda_cid14_p1	lambda_cid14_p2	lambda_cid14_p3	lambda_cid14_p4	lambda_cid14_p5	/jointset/ground_pelvis/pelvis_tilt/accel	/jointset/ground_pelvis/pelvis_tx/accel	/jointset/ground_pelvis/pelvis_ty/accel	/jointset/hip_r/hip_flexion_r/accel	/jointset/hip_r/hip_adduction_r/accel	/jointset/hip_r/hip_rotation_r/accel	/jointset/back/lumbar_extension/accel	/jointset/patellofemoral_r/patellar_flexion_r/accel	/jointset/knee_r/knee_flexion_r/accel	/jointset/knee_r/knee_adduction_r/accel	/jointset/knee_r/knee_rotation_r/accel	/jointset/ankle_r/ankle_angle_r/accel	/jointset/subtalar_r/subtalar_angle_r/accel	gamma_cid13_p0	gamma_cid14_p0	gamma_cid14_p1	gamma_cid14_p2	gamma_cid14_p3	gamma_cid14_p4	gamma_cid14_p5
1.5	0.004462605049573547	0.0646329639991139	0.8779910750000824	0.5201234020130933	-0.2284253590166507	-0.1498164138416176	-0.6005070116595301	0.6855687697063414	0.6855687697063469	0.02822598380351711	0.1745297209882496	0.2350225053832316	0.1084909408345006	0.2324746575793743	0.1730752615237804	0.247911813114636	-1.217881791371739	0.009148943837861037	-0.2172753122113638	0.804030083580175	-1.282470177070269	-1.282470177070276	0.2503144655916365	4.330721132447348e-06	-0.3672681778587318	-0.1124606731877993	-0.1037509502535639	-0.005060217702974177	0.01869250087433973	-0.2629637017919306	0.006302066563845172	-0.01267704100553311	0.1783543543748993	-21.71519485394126	-41.63945994911989	-9.595593328749802	-1.704365154476659	0.4370181559749515	-646.4372019782069	63.29989447039459	-0.1255746201733848	0.309740243501567	-0.2299589889835214	-0.5896228057732283	-0.0692771619983594	-0.275021187138343	1.339660353667248	-0.9046664802784753	-0.9046664802784754	0.445911033010341	-0.0298731678801758	-0.2979530049618762	-0.1353783859065206	1.924424573031306e-08	-6.71622375632616e-08	-8.004405111992858e-07	-5.546160624092307e-07	1.216195969159135e-07	-7.036880013581116e-08	-2.407144428231726e-07
1.51	0.006780666153501231	0.06637896380642176	0.8804581644532435	0.5079169516183774	-0.2283371726074882	-0.1520048696574767	-0.5924008306762909	0.6727006086843874	0.6727006086843947	0.03074963628946693	0.1745297519470905	0.2313355022946652	0.10736006350955	0.2311091306866407	0.1761000131125778	0.2454560654118407	-1.223240828780339	0.008484887591630109	-0.2204001490526363	0.8170824701300458	-1.290976523222754	-1.290976523222765	0.2543952329012046	2.92353223197924e-06	-0.3700800452300019	-0.1136991229256216	-0.09843975478459645	-0.006083972431479062	0.01820551278190462	-0.260945293631119	0.00821808172769462	-0.01319641220576863	0.1732870057202224	-22.28889837772768	-40.89803605441674	-9.630444587343884	-1.768364309620551	0.3086633669508171	-643.9306882971919	63.18338299202075	-0.1463122186743479	0.2951643510752802	-0.2609016111412363	-0.4839343662111251	-0.06565299126647484	-0.3288871590310615	1.26948136486109	-0.7957966211255129	-0.7957966211262214	0.3858963594801664	0.01476515559541986	-0.2649188662478618	-0.1159237872544421	1.826776540839095e-08	-6.970203579652039e-08	-7.97652847318277e-07	-5.82637338542581e-07	1.23052498562983e-07	-8.046874888670934e-08	-2.159616998982814e-07
1.52	0.009084217889520333	0.06815447547651843	0.882899192639334	0.4956619328180037	-0.2282557633878576	-0.1542241082870272	-0.5841678351157125	0.6597529486132337	0.6597529486132411	0.03331344380442091	0.1745297767640374	0.227621957479778	0.106217232583314	0.2295727839998944	0.1789776340815484	0.2426995597005075	-1.22759547250125	0.007793505932158878	-0.2234318749502847	0.8293929990485041	-1.298369986910921	-1.298369986910937	0.2583454713927747	3.102342947990669e-06	-0.3725765231228023	-0.1148513934448165	-0.09312855931564266	-0.007107727159980014	0.01771852468943554	-0.2589268854703126	0.01013409689154554	-0.01371578340599854	0.1682196570655325	-22.85370273480778	-40.16186866991356	-9.667040376494672	-1.831143665584409	0.1857903951510169	-641.5035072565497	63.05535921509904	-0.1597385789760221	0.2803141195362506	-0.2901105906910821	-0.3887440682356396	-0.07474224464643038	-0.2563989984135359	1.191288827384665	-0.6820899874150275	-0.6820899874150219	0.419805269410757	-0.02955596795687126	-0.2348751092678938	-0.1181425421810322	1.743442266764984e-08	-6.676620796789416e-08	-7.569631162270694e-07	-5.627777787997915e-07	1.172439676224379e-07	-7.969743283670425e-08	-1.907088253461821e-07
1.53	0.01137157021069088	0.06995797497054704	0.8853111782241303	0.4833684758487649	-0.2281813232978868	-0.1564730479977733	-0.5758155056118023	0.646737022268548	0.6467370222685451	0.03591601707474484	0.1745296419296541	0.2238850567494142	0.1050634242414854	0.22787039458877	0.1816920865035952	0.2396499662333356	-1.230916615737954	0.007103220066482408	-0.2263716319423226	0.8409428299922258	-1.304618989710074	-1.304618989710086	0.2621026485592698	-1.361595766232626e-05	-0.3747455559560855	-0.1158757590695204	-0.08787137774989076	-0.007904175177193242	0.01714894411513559	-0.2567066070522466	0.01177006706915642	-0.01425823392159963	0.1631775556870332	-23.40772566868927	-39.52183128107143	-9.729956534283192	-1.890337831993491	0.1552046222033748	-639.1266386950178	62.84864128129009	-0.1795860818095499	0.262503373205982	-0.3195345342902893	-0.2769102510931946	-0.06499610693603107	-0.3151192784816152	1.11731946650347	-0.5668648564204397	-0.5668648564199166	0.3435785818917211	0.01464830291032029	-0.1991868930181897	-0.08955944091203871	1.675316360691353e-08	-5.801252744851518e-08	-6.760024387250258e-07	-4.920448309386038e-07	1.037414145575523e-07	-6.737539793573959e-08	-1.649245609401743e-07
1.54	0.01364107924581238	0.07178771750272911	0.8876912377123427	0.4710471852872064	-0.2281135509364625	-0.1587518563242113	-0.5673515799507294	0.6336644940098151	0.633664494009813	0.038554143045049	0.1745298155250772	0.2201282117861854	0.1039003770697501	0.2260041267925181	0.1842262417122393	0.2363143403837653	-1.233162190962873	0.006459960224501498	-0.229405598089673	0.8517122304814729	-1.309690369719431	-1.30969036971944	0.265456011390679	6.478830266378167e-05	-0.376565369695753	-0.1166991594261011	-0.0826141961841545	-0.008700623194411009	0.0165793635408983	-0.2544863286341811	0.01340603724676885	-0.01480068443719977	0.15813545430852	-23.94906442423798	-38.8869040493698	-9.794673271427921	-1.948209944265856	0.1292176577010958	-636.8272557072032	62.63518840439568	-0.192514256001636	0.2442546768557985	-0.3473170671707504	-0.1736304658786252	-0.06533703990734237	-0.2752408294760612	1.035202736489613	-0.4465654294560745	-0.4465654294560751	0.3390424023935875	-0.01053145576957891	-0.1650312905446706	-0.07794948855638352	3.001678030848252e-08	-2.198462834774528e-08	-5.375256138965755e-07	-1.526189777920209e-07	6.995183887999245e-08	-5.720789784447063e-09	-2.277348189223363e-07
1.55	0.0158912098481196	0.07364193659743096	0.8900365785529495	0.4587084159392261	-0.2280528236516308	-0.1610587723668929	-0.5587841250269	0.6205471254330031	0.6205471254330093	0.04122698214598741	0.1745300291986503	0.2163546742807111	0.1027287661897548	0.2239886679386248	0.1865896575409172	0.2327102268700903	-1.234410179122814	0.005692462111256021	-0.2319868524681405	0.8616378765671844	-1.313584404606777	-1.313584404606784	0.2690471781008469	-1.011368871692482e-05	-0.3780776320471714	-0.1175890731630794	-0.07699592623600958	-0.00996759969937706	0.01604066519500816	-0.2529936416024304	0.01598681092331359	-0.01536111196971339	0.1528638990912253	-24.47578511164145	-37.95663357840584	-9.824989429735471	-2.000710035400616	-0.1336298813761256	-634.6607386764903	62.60947598644601	-0.2110530728826749	0.2281932891266577	-0.3734629028475891	-0.0731475213623078	-0.08129800968245271	-0.2508233194380483	0.9501138868437508	-0.3309964915304466	-0.3309964915301337	0.359470905431758	-0.00402378730973019	-0.1346446212907453	-0.08935364743652724	5.934731908401106e-08	4.546791390114722e-08	-3.327801845398775e-07	4.963878314442394e-07	1.278808497478747e-08	1.127735223291766e-07	-3.926213744386884e-07
1.56	0.01812018758731827	0.07551895150106969	0.8923445773765429	0.4463626138035761	-0.2279995397104638	-0.1633917520688379	-0.5501216399737691	0.6073967817126934	0.607396781712701	0.04393379633405016	0.174529883009005	0.2125679499689521	0.101549287906156	0.2217735541727773	0.1887854034996165	0.2288459369811504	-1.234568748495179	0.004971291492036982	-0.2346183299428467	0.8707182563421951	-1.316285398420384	-1.316285398420389	0.2722510288151451	-7.18433959318947e-06	-0.3792027309525998	-0.118272640146774	-0.07137765628787161	-0.01123457620433559	0.01550196684903635	-0.251500954570685	0.01856758459986073	-0.01592153950221622	0.1475923438739235	-24.98596079648923	-37.0296035222505	-9.852965086150265	-2.056905139565675	-0.4091535086270163	-632.5493326572782	62.64359882713693	-0.2324452383926336	0.2107207028601572	-0.3993523422237106	0.04425329163649359	-0.0560715411020656	-0.2852854487238241	0.866149474349405	-0.2079572147082297	-0.2079572147082291	0.2615792032196717	0.005034812331319903	-0.08759860134656022	-0.03668013789961909	7.674085006658057e-08	8.391479127076045e-08	-2.249390358322424e-07	8.676117775770184e-07	-1.879851093606878e-08	1.826948232647936e-07	-4.960593587281219e-07
